<svg width="56" height="56" viewBox="0 0 56 56" fill="none" xmlns="http://www.w3.org/2000/svg">
<path d="M56 15C56 6.71573 49.2843 0 41 0H15C6.71573 0 0 6.71573 0 15V41C0 49.2843 6.71573 56 15 56H41C49.2843 56 56 49.2843 56 41V15Z" fill="#ECE2C3"/>
<path d="M33 38L23 28L33 18" stroke="#825904" stroke-width="3" stroke-linecap="round" stroke-linejoin="round"/>
<path d="M41 1H15V-1H41V1ZM1 15V41H-1V15H1ZM15 55H41V57H15V55ZM55 41V15H57V41H55ZM41 55C48.732 55 55 48.732 55 41H57C57 49.8366 49.8366 57 41 57V55ZM1 41C1 48.732 7.26801 55 15 55V57C6.16344 57 -1 49.8366 -1 41H1ZM15 1C7.26801 1 1 7.26801 1 15H-1C-1 6.16344 6.16344 -1 15 -1V1ZM41 -1C49.8366 -1 57 6.16344 57 15H55C55 7.26801 48.732 1 41 1V-1Z" fill="#C18B19"/>
</svg>
