<svg width="414" height="896" viewBox="0 0 414 896" fill="none" xmlns="http://www.w3.org/2000/svg">
<rect width="414" height="896" fill="#1F2F3C"/>
<g opacity="0.4" clip-path="url(#clip0)">
<path d="M49 529.445C52.6 529.445 54 525.815 54 524C54 525.98 55.5 529.445 59 529.445C57.5 529.61 54 531.425 54 534.396C54 531.623 51 529.445 49 529.445Z" fill="white"/>
<path d="M49 112.446C52.6 112.446 54 108.815 54 107C54 108.98 55.5 112.446 59 112.446C57.5 112.611 54 114.426 54 117.396C54 114.624 51 112.446 49 112.446Z" fill="white"/>
<path d="M252 -2.55446C255.6 -2.55446 257 -6.18482 257 -8C257 -6.0198 258.5 -2.55446 262 -2.55446C260.5 -2.38944 257 -0.574257 257 2.39604C257 -0.376237 254 -2.55446 252 -2.55446Z" fill="white"/>
<path d="M350 518.446C353.6 518.446 355 514.815 355 513C355 514.98 356.5 518.446 360 518.446C358.5 518.611 355 520.426 355 523.396C355 520.624 352 518.446 350 518.446Z" fill="white"/>
<circle cx="394" cy="488" r="19" stroke="white" stroke-width="2"/>
<path d="M350 101.446C353.6 101.446 355 97.8157 355 96.0005C355 97.9807 356.5 101.446 360 101.446C358.5 101.611 355 103.426 355 106.397C355 103.624 352 101.446 350 101.446Z" fill="white"/>
<path d="M226 14.446C229.6 14.446 231 10.8157 231 9.00049C231 10.9807 232.5 14.446 236 14.446C234.5 14.611 231 16.4262 231 19.3965C231 16.6243 228 14.446 226 14.446Z" fill="white"/>
<path d="M160 646.445C163.6 646.445 165 642.814 165 640.999C165 642.979 166.5 646.445 170 646.445C168.5 646.61 165 648.425 165 651.395C165 648.623 162 646.445 160 646.445Z" fill="white"/>
<path d="M160 229.445C163.6 229.445 165 225.815 165 224C165 225.98 166.5 229.445 170 229.445C168.5 229.61 165 231.425 165 234.396C165 231.624 162 229.445 160 229.445Z" fill="white"/>
<path d="M394 741.445C397.6 741.445 399 737.815 399 736C399 737.98 400.5 741.445 404 741.445C402.5 741.61 399 743.426 399 746.396C399 743.624 396 741.445 394 741.445Z" fill="white"/>
<path d="M394 324.446C397.6 324.446 399 320.816 399 319C399 320.981 400.5 324.446 404 324.446C402.5 324.611 399 326.426 399 329.396C399 326.624 396 324.446 394 324.446Z" fill="white"/>
<path d="M314 604.445C317.6 604.445 319 600.814 319 598.999C319 600.979 320.5 604.445 324 604.445C322.5 604.61 319 606.425 319 609.395C319 606.623 316 604.445 314 604.445Z" fill="white"/>
<path d="M314 187.445C317.6 187.445 319 183.815 319 182C319 183.98 320.5 187.445 324 187.445C322.5 187.61 319 189.425 319 192.396C319 189.624 316 187.445 314 187.445Z" fill="white"/>
<path d="M178 770.445C181.6 770.445 183 766.815 183 765C183 766.98 184.5 770.445 188 770.445C186.5 770.61 183 772.426 183 775.396C183 772.624 180 770.445 178 770.445Z" fill="white"/>
<path d="M178 353.446C181.6 353.446 183 349.816 183 348C183 349.981 184.5 353.446 188 353.446C186.5 353.611 183 355.426 183 358.396C183 355.624 180 353.446 178 353.446Z" fill="white"/>
<path d="M120 866.445C123.6 866.445 125 862.815 125 861C125 862.98 126.5 866.445 130 866.445C128.5 866.61 125 868.426 125 871.396C125 868.624 122 866.445 120 866.445Z" fill="white"/>
<path d="M120 449.446C123.6 449.446 125 445.816 125 444C125 445.981 126.5 449.446 130 449.446C128.5 449.611 125 451.426 125 454.396C125 451.624 122 449.446 120 449.446Z" fill="white"/>
<path d="M18 850.445C21.6 850.445 23 846.815 23 845C23 846.98 24.5 850.445 28 850.445C26.5 850.61 23 852.426 23 855.396C23 852.624 20 850.445 18 850.445Z" fill="white"/>
<path d="M18 433.446C21.6 433.446 23 429.816 23 428C23 429.981 24.5 433.446 28 433.446C26.5 433.611 23 435.426 23 438.396C23 435.624 20 433.446 18 433.446Z" fill="white"/>
<path d="M363 573.446C366.6 573.446 368 569.815 368 568C368 569.98 369.5 573.446 373 573.446C371.5 573.611 368 575.426 368 578.396C368 575.624 365 573.446 363 573.446Z" fill="white"/>
<path d="M363 156.446C366.6 156.446 368 152.816 368 151C368 152.981 369.5 156.446 373 156.446C371.5 156.611 368 158.426 368 161.397C368 158.624 365 156.446 363 156.446Z" fill="white"/>
<path d="M239 69.446C242.6 69.446 244 65.8157 244 64.0005C244 65.9807 245.5 69.446 249 69.446C247.5 69.611 244 71.4262 244 74.3965C244 71.6243 241 69.446 239 69.446Z" fill="white"/>
<path d="M102 659.445C105.6 659.445 107 655.814 107 653.999C107 655.979 108.5 659.445 112 659.445C110.5 659.61 107 661.425 107 664.395C107 661.623 104 659.445 102 659.445Z" fill="white"/>
<path d="M102 242.445C105.6 242.445 107 238.815 107 237C107 238.98 108.5 242.445 112 242.445C110.5 242.61 107 244.425 107 247.396C107 244.623 104 242.445 102 242.445Z" fill="white"/>
<path d="M336 754.445C339.6 754.445 341 750.815 341 749C341 750.98 342.5 754.445 346 754.445C344.5 754.61 341 756.426 341 759.396C341 756.624 338 754.445 336 754.445Z" fill="white"/>
<path d="M336 337.446C339.6 337.446 341 333.816 341 332C341 333.981 342.5 337.446 346 337.446C344.5 337.611 341 339.426 341 342.396C341 339.624 338 337.446 336 337.446Z" fill="white"/>
<path d="M86 742.445C89.6 742.445 91 738.815 91 737C91 738.98 92.5 742.445 96 742.445C94.5 742.61 91 744.426 91 747.396C91 744.624 88 742.445 86 742.445Z" fill="white"/>
<path d="M86 325.446C89.6 325.446 91 321.816 91 320C91 321.981 92.5 325.446 96 325.446C94.5 325.611 91 327.426 91 330.396C91 327.624 88 325.446 86 325.446Z" fill="white"/>
<path d="M320 837.445C323.6 837.445 325 833.815 325 832C325 833.98 326.5 837.445 330 837.445C328.5 837.61 325 839.426 325 842.396C325 839.624 322 837.445 320 837.445Z" fill="white"/>
<path d="M320 420.446C323.6 420.446 325 416.816 325 415C325 416.981 326.5 420.446 330 420.446C328.5 420.611 325 422.426 325 425.396C325 422.624 322 420.446 320 420.446Z" fill="white"/>
<path d="M363 710.445C366.6 710.445 368 706.815 368 705C368 706.98 369.5 710.445 373 710.445C371.5 710.61 368 712.425 368 715.396C368 712.624 365 710.445 363 710.445Z" fill="white"/>
<path d="M363 293.446C366.6 293.446 368 289.815 368 288C368 289.98 369.5 293.446 373 293.446C371.5 293.611 368 295.426 368 298.396C368 295.624 365 293.446 363 293.446Z" fill="white"/>
<path d="M392 656.446C395.6 656.446 397 652.815 397 651C397 652.98 398.5 656.446 402 656.446C400.5 656.611 397 658.426 397 661.396C397 658.624 394 656.446 392 656.446Z" fill="white"/>
<path d="M392 239.446C395.6 239.446 397 235.816 397 234C397 235.981 398.5 239.446 402 239.446C400.5 239.611 397 241.426 397 244.397C397 241.624 394 239.446 392 239.446Z" fill="white"/>
<path d="M227 876.445C230.6 876.445 232 872.815 232 871C232 872.98 233.5 876.445 237 876.445C235.5 876.61 232 878.426 232 881.396C232 878.624 229 876.445 227 876.445Z" fill="white"/>
<path d="M227 459.446C230.6 459.446 232 455.816 232 454C232 455.981 233.5 459.446 237 459.446C235.5 459.611 232 461.426 232 464.396C232 461.624 229 459.446 227 459.446Z" fill="white"/>
<path d="M44.0002 650.999C51.2002 650.999 54.0002 643.666 54.0002 639.999C54.0002 643.999 57.0002 650.999 64.0002 650.999C61.0002 651.333 54.0002 654.999 54.0002 660.999C54.0002 655.399 48.0002 650.999 44.0002 650.999Z" fill="white"/>
<path d="M44.0002 234C51.2002 234 54.0002 226.666 54.0002 223C54.0002 227 57.0002 234 64.0002 234C61.0002 234.333 54.0002 238 54.0002 244C54.0002 238.4 48.0002 234 44.0002 234Z" fill="white"/>
<path d="M278 746C285.2 746 288 738.667 288 735C288 739 291 746 298 746C295 746.333 288 750 288 756C288 750.4 282 746 278 746Z" fill="white"/>
<path d="M278 329C285.2 329 288 321.667 288 318C288 322 291 329 298 329C295 329.334 288 333 288 339C288 333.4 282 329 278 329Z" fill="white"/>
<path d="M374 843C381.2 843 384 835.667 384 832C384 836 387 843 394 843C391 843.333 384 847 384 853C384 847.4 378 843 374 843Z" fill="white"/>
<path d="M374 426C381.2 426 384 418.667 384 415C384 419 387 426 394 426C391 426.334 384 430 384 436C384 430.4 378 426 374 426Z" fill="white"/>
<path d="M313 555C320.2 555 323 547.666 323 544C323 548 326 555 333 555C330 555.333 323 559 323 565C323 559.4 317 555 313 555Z" fill="white"/>
<path d="M313 138C320.2 138 323 130.667 323 127C323 131 326 138 333 138C330 138.333 323 142 323 148C323 142.4 317 138 313 138Z" fill="white"/>
<path d="M189 51C196.2 51 199 43.6667 199 40C199 44 202 51 209 51C206 51.3333 199 55 199 61C199 55.4 193 51 189 51Z" fill="white"/>
<path d="M130 44C137.2 44 140 36.6667 140 33C140 37 143 44 150 44C147 44.3333 140 48 140 54C140 48.4 134 44 130 44Z" fill="white"/>
<path d="M147 589.999C154.2 589.999 157 582.666 157 578.999C157 582.999 160 589.999 167 589.999C164 590.333 157 593.999 157 599.999C157 594.399 151 589.999 147 589.999Z" fill="white"/>
<path d="M68 475C75.2 475 78 467.667 78 464C78 468 81 475 88 475C85 475.333 78 479 78 485C78 479.4 72 475 68 475Z" fill="white"/>
<path d="M147 173C154.2 173 157 165.666 157 162C157 166 160 173 167 173C164 173.333 157 177 157 183C157 177.4 151 173 147 173Z" fill="white"/>
<path d="M350 57.9998C357.2 57.9998 360 50.6664 360 46.9998C360 50.9998 363 57.9998 370 57.9998C367 58.3331 360 61.9998 360 67.9998C360 62.3998 354 57.9998 350 57.9998Z" fill="white"/>
<path d="M238 576C245.2 576 248 568.667 248 565C248 569 251 576 258 576C255 576.333 248 580 248 586C248 580.4 242 576 238 576Z" fill="white"/>
<path d="M238 159C245.2 159 248 151.667 248 148C248 152 251 159 258 159C255 159.334 248 163 248 169C248 163.4 242 159 238 159Z" fill="white"/>
<path d="M55 65.0005C62.2 65.0005 65 57.6672 65 54.0005C65 58.0005 68 65.0005 75 65.0005C72 65.3338 65 69.0005 65 75.0005C65 69.4005 59 65.0005 55 65.0005Z" fill="white"/>
<path d="M177 721C184.2 721 187 713.666 187 710C187 714 190 721 197 721C194 721.333 187 725 187 731C187 725.4 181 721 177 721Z" fill="white"/>
<path d="M177 304C184.2 304 187 296.667 187 293C187 297 190 304 197 304C194 304.334 187 308 187 314C187 308.4 181 304 177 304Z" fill="white"/>
<path d="M364 599.999C371.2 599.999 374 592.666 374 588.999C374 592.999 377 599.999 384 599.999C381 600.333 374 603.999 374 609.999C374 604.399 368 599.999 364 599.999Z" fill="white"/>
<path d="M364 183C371.2 183 374 175.666 374 172C374 176 377 183 384 183C381 183.333 374 187 374 193C374 187.4 368 183 364 183Z" fill="white"/>
<path d="M228 766C235.2 766 238 758.667 238 755C238 759 241 766 248 766C245 766.333 238 770 238 776C238 770.4 232 766 228 766Z" fill="white"/>
<path d="M228 349C235.2 349 238 341.667 238 338C238 342 241 349 248 349C245 349.334 238 353 238 359C238 353.4 232 349 228 349Z" fill="white"/>
<path d="M92.0065 572.778C91.7429 572.126 91.289 571.556 90.7627 571.105C90.328 570.732 89.8324 570.431 89.3333 570.228C90.1787 569.942 90.8206 569.395 91.2816 568.766C91.6029 568.328 91.8384 567.848 91.9967 567.384C92.1615 567.871 92.411 568.369 92.7508 568.817C93.2398 569.462 93.9203 570.009 94.8069 570.272C94.344 570.466 93.8495 570.741 93.398 571.086C92.8271 571.524 92.3039 572.091 92.0065 572.778Z" stroke="white" stroke-width="0.5"/>
<path d="M92.0065 155.779C91.7429 155.127 91.289 154.556 90.7627 154.105C90.328 153.733 89.8324 153.431 89.3333 153.229C90.1787 152.943 90.8206 152.395 91.2816 151.767C91.6029 151.328 91.8384 150.848 91.9967 150.384C92.1615 150.872 92.411 151.369 92.7508 151.817C93.2398 152.462 93.9203 153.009 94.8069 153.272C94.344 153.467 93.8495 153.741 93.398 154.087C92.8271 154.524 92.3039 155.092 92.0065 155.779Z" stroke="white" stroke-width="0.5"/>
<path d="M295.006 40.7785C294.743 40.1269 294.289 39.5563 293.763 39.1052C293.328 38.7326 292.832 38.4314 292.333 38.2286C293.179 37.9426 293.821 37.3954 294.282 36.7666C294.603 36.3284 294.838 35.8482 294.997 35.3842C295.162 35.8717 295.411 36.3694 295.751 36.8175C296.24 37.4624 296.92 38.0091 297.807 38.2723C297.344 38.4669 296.85 38.7413 296.398 39.087C295.827 39.5241 295.304 40.092 295.006 40.7785Z" stroke="white" stroke-width="0.5"/>
<path d="M203.006 689.778C202.743 689.127 202.289 688.556 201.763 688.105C201.328 687.732 200.832 687.431 200.333 687.228C201.179 686.942 201.821 686.395 202.282 685.766C202.603 685.328 202.838 684.848 202.997 684.384C203.162 684.871 203.411 685.369 203.751 685.817C204.24 686.462 204.92 687.009 205.807 687.272C205.344 687.467 204.85 687.741 204.398 688.087C203.827 688.524 203.304 689.092 203.006 689.778Z" stroke="white" stroke-width="0.5"/>
<path d="M203.006 272.779C202.743 272.127 202.289 271.556 201.763 271.105C201.328 270.733 200.832 270.432 200.333 270.229C201.179 269.943 201.821 269.396 202.282 268.767C202.603 268.329 202.838 267.848 202.997 267.384C203.162 267.872 203.411 268.369 203.751 268.818C204.24 269.462 204.92 270.009 205.807 270.272C205.344 270.467 204.85 270.741 204.398 271.087C203.827 271.524 203.304 272.092 203.006 272.779Z" stroke="white" stroke-width="0.5"/>
<path d="M32.0065 726.779C31.7429 726.127 31.289 725.556 30.7627 725.105C30.328 724.733 29.8324 724.431 29.3333 724.229C30.1787 723.943 30.8206 723.395 31.2816 722.767C31.6029 722.328 31.8384 721.848 31.9967 721.384C32.1615 721.872 32.411 722.369 32.7508 722.817C33.2398 723.462 33.9203 724.009 34.8069 724.272C34.344 724.467 33.8495 724.741 33.398 725.087C32.8271 725.524 32.3039 726.092 32.0065 726.779Z" stroke="white" stroke-width="0.5"/>
<path d="M32.0065 309.779C31.7429 309.127 31.289 308.557 30.7627 308.106C30.328 307.733 29.8324 307.432 29.3333 307.229C30.1787 306.943 30.8206 306.396 31.2816 305.767C31.6029 305.329 31.8384 304.849 31.9967 304.385C32.1615 304.872 32.411 305.37 32.7508 305.818C33.2398 306.463 33.9203 307.01 34.8069 307.273C34.344 307.467 33.8495 307.742 33.398 308.087C32.8271 308.525 32.3039 309.092 32.0065 309.779Z" stroke="white" stroke-width="0.5"/>
<path d="M266.006 821.779C265.743 821.127 265.289 820.556 264.763 820.105C264.328 819.733 263.832 819.432 263.333 819.229C264.179 818.943 264.821 818.396 265.282 817.767C265.603 817.329 265.838 816.848 265.997 816.384C266.162 816.872 266.411 817.369 266.751 817.818C267.24 818.462 267.92 819.009 268.807 819.272C268.344 819.467 267.85 819.741 267.398 820.087C266.827 820.524 266.304 821.092 266.006 821.779Z" stroke="white" stroke-width="0.5"/>
<path d="M266.006 404.779C265.743 404.127 265.289 403.557 264.763 403.106C264.328 402.733 263.832 402.432 263.333 402.229C264.179 401.943 264.821 401.396 265.282 400.767C265.603 400.329 265.838 399.849 265.997 399.385C266.162 399.872 266.411 400.37 266.751 400.818C267.24 401.463 267.92 402.01 268.807 402.273C268.344 402.467 267.85 402.742 267.398 403.088C266.827 403.525 266.304 404.093 266.006 404.779Z" stroke="white" stroke-width="0.5"/>
<path d="M49.0065 834.779C48.7429 834.127 48.289 833.556 47.7627 833.105C47.328 832.733 46.8324 832.432 46.3333 832.229C47.1787 831.943 47.8206 831.396 48.2816 830.767C48.6029 830.329 48.8384 829.848 48.9967 829.384C49.1615 829.872 49.411 830.369 49.7508 830.818C50.2398 831.462 50.9203 832.009 51.8069 832.272C51.344 832.467 50.8495 832.741 50.398 833.087C49.8271 833.524 49.3039 834.092 49.0065 834.779Z" stroke="white" stroke-width="0.5"/>
<path d="M49.0065 417.779C48.7429 417.127 48.289 416.557 47.7627 416.106C47.328 415.733 46.8324 415.432 46.3333 415.229C47.1787 414.943 47.8206 414.396 48.2816 413.767C48.6029 413.329 48.8384 412.849 48.9967 412.385C49.1615 412.872 49.411 413.37 49.7508 413.818C50.2398 414.463 50.9203 415.01 51.8069 415.273C51.344 415.467 50.8495 415.742 50.398 416.088C49.8271 416.525 49.3039 417.093 49.0065 417.779Z" stroke="white" stroke-width="0.5"/>
<path d="M394.006 557.779C393.743 557.127 393.289 556.557 392.763 556.105C392.328 555.733 391.832 555.432 391.333 555.229C392.179 554.943 392.821 554.396 393.282 553.767C393.603 553.329 393.838 552.848 393.997 552.384C394.162 552.872 394.411 553.37 394.751 553.818C395.24 554.463 395.92 555.009 396.807 555.273C396.344 555.467 395.85 555.742 395.398 556.087C394.827 556.524 394.304 557.092 394.006 557.779Z" stroke="white" stroke-width="0.5"/>
<path d="M394.006 140.779C393.743 140.128 393.289 139.557 392.763 139.106C392.328 138.733 391.832 138.432 391.333 138.229C392.179 137.943 392.821 137.396 393.282 136.767C393.603 136.329 393.838 135.849 393.997 135.385C394.162 135.872 394.411 136.37 394.751 136.818C395.24 137.463 395.92 138.01 396.807 138.273C396.344 138.468 395.85 138.742 395.398 139.088C394.827 139.525 394.304 140.093 394.006 140.779Z" stroke="white" stroke-width="0.5"/>
<path d="M270.006 53.7793C269.743 53.1276 269.289 52.557 268.763 52.1059C268.328 51.7333 267.832 51.4321 267.333 51.2294C268.179 50.9433 268.821 50.3962 269.282 49.7673C269.603 49.3291 269.838 48.8489 269.997 48.3849C270.162 48.8724 270.411 49.3701 270.751 49.8182C271.24 50.4631 271.92 51.0099 272.807 51.273C272.344 51.4676 271.85 51.742 271.398 52.0877C270.827 52.5248 270.304 53.0927 270.006 53.7793Z" stroke="white" stroke-width="0.5"/>
<path d="M398.006 490.778C397.743 490.127 397.289 489.556 396.763 489.105C396.328 488.732 395.832 488.431 395.333 488.228C396.179 487.942 396.821 487.395 397.282 486.766C397.603 486.328 397.838 485.848 397.997 485.384C398.162 485.871 398.411 486.369 398.751 486.817C399.24 487.462 399.92 488.009 400.807 488.272C400.344 488.467 399.85 488.741 399.398 489.087C398.827 489.524 398.304 490.092 398.006 490.778Z" stroke="white" stroke-width="0.5"/>
<path d="M398.006 73.7788C397.743 73.1271 397.289 72.5565 396.763 72.1054C396.328 71.7328 395.832 71.4316 395.333 71.2289C396.179 70.9429 396.821 70.3957 397.282 69.7669C397.603 69.3286 397.838 68.8484 397.997 68.3844C398.162 68.8719 398.411 69.3696 398.751 69.8177C399.24 70.4626 399.92 71.0094 400.807 71.2726C400.344 71.4671 399.85 71.7415 399.398 72.0872C398.827 72.5243 398.304 73.0922 398.006 73.7788Z" stroke="white" stroke-width="0.5"/>
<path d="M232.006 525.778C231.743 525.127 231.289 524.556 230.763 524.105C230.328 523.732 229.832 523.431 229.333 523.228C230.179 522.942 230.821 522.395 231.282 521.766C231.603 521.328 231.838 520.848 231.997 520.384C232.162 520.871 232.411 521.369 232.751 521.817C233.24 522.462 233.92 523.009 234.807 523.272C234.344 523.467 233.85 523.741 233.398 524.087C232.827 524.524 232.304 525.092 232.006 525.778Z" stroke="white" stroke-width="0.5"/>
<path d="M232.006 108.779C231.743 108.127 231.289 107.557 230.763 107.105C230.328 106.733 229.832 106.432 229.333 106.229C230.179 105.943 230.821 105.396 231.282 104.767C231.603 104.329 231.838 103.848 231.997 103.384C232.162 103.872 232.411 104.37 232.751 104.818C233.24 105.463 233.92 106.009 234.807 106.273C234.344 106.467 233.85 106.742 233.398 107.087C232.827 107.524 232.304 108.092 232.006 108.779Z" stroke="white" stroke-width="0.5"/>
<path d="M49.0065 14.7788C48.7429 14.1271 48.289 13.5565 47.7627 13.1054C47.328 12.7328 46.8324 12.4316 46.3333 12.2289C47.1787 11.9429 47.8206 11.3957 48.2816 10.7669C48.6029 10.3286 48.8384 9.84843 48.9967 9.3844C49.1615 9.87195 49.411 10.3696 49.7508 10.8177C50.2398 11.4626 50.9203 12.0094 51.8069 12.2726C51.344 12.4671 50.8495 12.7415 50.398 13.0872C49.8271 13.5243 49.3039 14.0922 49.0065 14.7788Z" stroke="white" stroke-width="0.5"/>
<path d="M260.006 868.779C259.743 868.127 259.289 867.556 258.763 867.105C258.328 866.733 257.832 866.432 257.333 866.229C258.179 865.943 258.821 865.396 259.282 864.767C259.603 864.329 259.838 863.848 259.997 863.384C260.162 863.872 260.411 864.369 260.751 864.818C261.24 865.462 261.92 866.009 262.807 866.272C262.344 866.467 261.85 866.741 261.398 867.087C260.827 867.524 260.304 868.092 260.006 868.779Z" stroke="white" stroke-width="0.5"/>
<path d="M260.006 451.779C259.743 451.127 259.289 450.557 258.763 450.106C258.328 449.733 257.832 449.432 257.333 449.229C258.179 448.943 258.821 448.396 259.282 447.767C259.603 447.329 259.838 446.849 259.997 446.385C260.162 446.872 260.411 447.37 260.751 447.818C261.24 448.463 261.92 449.01 262.807 449.273C262.344 449.467 261.85 449.742 261.398 450.088C260.827 450.525 260.304 451.093 260.006 451.779Z" stroke="white" stroke-width="0.5"/>
<path d="M252.006 634.778C251.743 634.126 251.289 633.556 250.763 633.105C250.328 632.732 249.832 632.431 249.333 632.228C250.179 631.942 250.821 631.395 251.282 630.766C251.603 630.328 251.838 629.848 251.997 629.384C252.162 629.871 252.411 630.369 252.751 630.817C253.24 631.462 253.92 632.009 254.807 632.272C254.344 632.466 253.85 632.741 253.398 633.086C252.827 633.524 252.304 634.091 252.006 634.778Z" stroke="white" stroke-width="0.5"/>
<path d="M252.006 217.779C251.743 217.127 251.289 216.556 250.763 216.105C250.328 215.733 249.832 215.431 249.333 215.229C250.179 214.943 250.821 214.395 251.282 213.767C251.603 213.328 251.838 212.848 251.997 212.384C252.162 212.872 252.411 213.369 252.751 213.817C253.24 214.462 253.92 215.009 254.807 215.272C254.344 215.467 253.85 215.741 253.398 216.087C252.827 216.524 252.304 217.092 252.006 217.779Z" stroke="white" stroke-width="0.5"/>
<path d="M116.006 800.779C115.743 800.127 115.289 799.556 114.763 799.105C114.328 798.733 113.832 798.432 113.333 798.229C114.179 797.943 114.821 797.396 115.282 796.767C115.603 796.329 115.838 795.848 115.997 795.384C116.162 795.872 116.411 796.369 116.751 796.818C117.24 797.462 117.92 798.009 118.807 798.272C118.344 798.467 117.85 798.741 117.398 799.087C116.827 799.524 116.304 800.092 116.006 800.779Z" stroke="white" stroke-width="0.5"/>
<path d="M116.006 383.779C115.743 383.127 115.289 382.557 114.763 382.106C114.328 381.733 113.832 381.432 113.333 381.229C114.179 380.943 114.821 380.396 115.282 379.767C115.603 379.329 115.838 378.849 115.997 378.385C116.162 378.872 116.411 379.37 116.751 379.818C117.24 380.463 117.92 381.01 118.807 381.273C118.344 381.467 117.85 381.742 117.398 382.088C116.827 382.525 116.304 383.093 116.006 383.779Z" stroke="white" stroke-width="0.5"/>
<path d="M195.006 838.779C194.743 838.127 194.289 837.556 193.763 837.105C193.328 836.733 192.832 836.432 192.333 836.229C193.179 835.943 193.821 835.396 194.282 834.767C194.603 834.329 194.838 833.848 194.997 833.384C195.162 833.872 195.411 834.369 195.751 834.818C196.24 835.462 196.92 836.009 197.807 836.272C197.344 836.467 196.85 836.741 196.398 837.087C195.827 837.524 195.304 838.092 195.006 838.779Z" stroke="white" stroke-width="0.5"/>
<path d="M195.006 421.779C194.743 421.127 194.289 420.557 193.763 420.106C193.328 419.733 192.832 419.432 192.333 419.229C193.179 418.943 193.821 418.396 194.282 417.767C194.603 417.329 194.838 416.849 194.997 416.385C195.162 416.872 195.411 417.37 195.751 417.818C196.24 418.463 196.92 419.01 197.807 419.273C197.344 419.467 196.85 419.742 196.398 420.088C195.827 420.525 195.304 421.093 195.006 421.779Z" stroke="white" stroke-width="0.5"/>
<path d="M327.006 786.779C326.743 786.127 326.289 785.556 325.763 785.105C325.328 784.733 324.832 784.432 324.333 784.229C325.179 783.943 325.821 783.396 326.282 782.767C326.603 782.329 326.838 781.848 326.997 781.384C327.162 781.872 327.411 782.369 327.751 782.818C328.24 783.462 328.92 784.009 329.807 784.272C329.344 784.467 328.85 784.741 328.398 785.087C327.827 785.524 327.304 786.092 327.006 786.779Z" stroke="white" stroke-width="0.5"/>
<path d="M327.006 369.779C326.743 369.127 326.289 368.557 325.763 368.106C325.328 367.733 324.832 367.432 324.333 367.229C325.179 366.943 325.821 366.396 326.282 365.767C326.603 365.329 326.838 364.849 326.997 364.385C327.162 364.872 327.411 365.37 327.751 365.818C328.24 366.463 328.92 367.01 329.807 367.273C329.344 367.467 328.85 367.742 328.398 368.088C327.827 368.525 327.304 369.093 327.006 369.779Z" stroke="white" stroke-width="0.5"/>
<path d="M278.006 708.779C277.743 708.127 277.289 707.557 276.763 707.105C276.328 706.733 275.832 706.432 275.333 706.229C276.179 705.943 276.821 705.396 277.282 704.767C277.603 704.329 277.838 703.848 277.997 703.384C278.162 703.872 278.411 704.37 278.751 704.818C279.24 705.463 279.92 706.009 280.807 706.273C280.344 706.467 279.85 706.742 279.398 707.087C278.827 707.524 278.304 708.092 278.006 708.779Z" stroke="white" stroke-width="0.5"/>
<path d="M278.006 291.779C277.743 291.128 277.289 290.557 276.763 290.106C276.328 289.733 275.832 289.432 275.333 289.229C276.179 288.943 276.821 288.396 277.282 287.767C277.603 287.329 277.838 286.849 277.997 286.385C278.162 286.872 278.411 287.37 278.751 287.818C279.24 288.463 279.92 289.01 280.807 289.273C280.344 289.468 279.85 289.742 279.398 290.088C278.827 290.525 278.304 291.093 278.006 291.779Z" stroke="white" stroke-width="0.5"/>
<path d="M366.006 865.779C365.743 865.127 365.289 864.556 364.763 864.105C364.328 863.733 363.832 863.432 363.333 863.229C364.179 862.943 364.821 862.396 365.282 861.767C365.603 861.329 365.838 860.848 365.997 860.384C366.162 860.872 366.411 861.369 366.751 861.818C367.24 862.462 367.92 863.009 368.807 863.272C368.344 863.467 367.85 863.741 367.398 864.087C366.827 864.524 366.304 865.092 366.006 865.779Z" stroke="white" stroke-width="0.5"/>
<path d="M366.006 448.779C365.743 448.127 365.289 447.557 364.763 447.106C364.328 446.733 363.832 446.432 363.333 446.229C364.179 445.943 364.821 445.396 365.282 444.767C365.603 444.329 365.838 443.849 365.997 443.385C366.162 443.872 366.411 444.37 366.751 444.818C367.24 445.463 367.92 446.01 368.807 446.273C368.344 446.467 367.85 446.742 367.398 447.088C366.827 447.525 366.304 448.093 366.006 448.779Z" stroke="white" stroke-width="0.5"/>
<path d="M178.006 498.778C177.743 498.127 177.289 497.556 176.763 497.105C176.328 496.732 175.832 496.431 175.333 496.228C176.179 495.942 176.821 495.395 177.282 494.766C177.603 494.328 177.838 493.848 177.997 493.384C178.162 493.871 178.411 494.369 178.751 494.817C179.24 495.462 179.92 496.009 180.807 496.272C180.344 496.467 179.85 496.741 179.398 497.087C178.827 497.524 178.304 498.092 178.006 498.778Z" stroke="white" stroke-width="0.5"/>
<path d="M178.006 81.7788C177.743 81.1271 177.289 80.5565 176.763 80.1054C176.328 79.7328 175.832 79.4316 175.333 79.2289C176.179 78.9429 176.821 78.3957 177.282 77.7669C177.603 77.3286 177.838 76.8484 177.997 76.3844C178.162 76.8719 178.411 77.3696 178.751 77.8177C179.24 78.4626 179.92 79.0094 180.807 79.2726C180.344 79.4671 179.85 79.7415 179.398 80.0872C178.827 80.5243 178.304 81.0922 178.006 81.7788Z" stroke="white" stroke-width="0.5"/>
<path d="M289.006 615.778C288.743 615.126 288.289 614.556 287.763 614.105C287.328 613.732 286.832 613.431 286.333 613.228C287.179 612.942 287.821 612.395 288.282 611.766C288.603 611.328 288.838 610.848 288.997 610.384C289.162 610.871 289.411 611.369 289.751 611.817C290.24 612.462 290.92 613.009 291.807 613.272C291.344 613.466 290.85 613.741 290.398 614.086C289.827 614.524 289.304 615.091 289.006 615.778Z" stroke="white" stroke-width="0.5"/>
<path d="M289.006 198.779C288.743 198.127 288.289 197.556 287.763 197.105C287.328 196.733 286.832 196.431 286.333 196.229C287.179 195.943 287.821 195.395 288.282 194.767C288.603 194.328 288.838 193.848 288.997 193.384C289.162 193.872 289.411 194.369 289.751 194.817C290.24 195.462 290.92 196.009 291.807 196.272C291.344 196.467 290.85 196.741 290.398 197.087C289.827 197.524 289.304 198.092 289.006 198.779Z" stroke="white" stroke-width="0.5"/>
<path d="M198.006 536.778C197.743 536.127 197.289 535.556 196.763 535.105C196.328 534.732 195.832 534.431 195.333 534.228C196.179 533.942 196.821 533.395 197.282 532.766C197.603 532.328 197.838 531.848 197.997 531.384C198.162 531.871 198.411 532.369 198.751 532.817C199.24 533.462 199.92 534.009 200.807 534.272C200.344 534.467 199.85 534.741 199.398 535.087C198.827 535.524 198.304 536.092 198.006 536.778Z" stroke="white" stroke-width="0.5"/>
<path d="M198.006 119.779C197.743 119.127 197.289 118.557 196.763 118.105C196.328 117.733 195.832 117.432 195.333 117.229C196.179 116.943 196.821 116.396 197.282 115.767C197.603 115.329 197.838 114.848 197.997 114.384C198.162 114.872 198.411 115.37 198.751 115.818C199.24 116.463 199.92 117.009 200.807 117.273C200.344 117.467 199.85 117.742 199.398 118.087C198.827 118.524 198.304 119.092 198.006 119.779Z" stroke="white" stroke-width="0.5"/>
<path d="M15.0065 25.7788C14.7429 25.1271 14.289 24.5565 13.7627 24.1054C13.328 23.7328 12.8324 23.4316 12.3333 23.2289C13.1787 22.9429 13.8206 22.3957 14.2816 21.7669C14.6029 21.3286 14.8384 20.8484 14.9967 20.3844C15.1615 20.8719 15.411 21.3696 15.7508 21.8177C16.2398 22.4626 16.9203 23.0094 17.8069 23.2726C17.344 23.4671 16.8495 23.7415 16.398 24.0872C15.8271 24.5243 15.3039 25.0922 15.0065 25.7788Z" stroke="white" stroke-width="0.5"/>
<path d="M401.006 4.77877C400.743 4.12712 400.289 3.55652 399.763 3.10542C399.328 2.73284 398.832 2.43162 398.333 2.22888C399.179 1.94286 399.821 1.39568 400.282 0.766857C400.603 0.328646 400.838 -0.151572 400.997 -0.615602C401.162 -0.128052 401.411 0.369612 401.751 0.817727C402.24 1.4626 402.92 2.00937 403.807 2.27255C403.344 2.46711 402.85 2.74152 402.398 3.08721C401.827 3.52434 401.304 4.0922 401.006 4.77877Z" stroke="white" stroke-width="0.5"/>
<path d="M309.006 653.778C308.743 653.126 308.289 652.556 307.763 652.105C307.328 651.732 306.832 651.431 306.333 651.228C307.179 650.942 307.821 650.395 308.282 649.766C308.603 649.328 308.838 648.848 308.997 648.384C309.162 648.871 309.411 649.369 309.751 649.817C310.24 650.462 310.92 651.009 311.807 651.272C311.344 651.466 310.85 651.741 310.398 652.086C309.827 652.523 309.304 653.091 309.006 653.778Z" stroke="white" stroke-width="0.5"/>
<path d="M309.006 236.778C308.743 236.127 308.289 235.556 307.763 235.105C307.328 234.732 306.832 234.431 306.333 234.229C307.179 233.942 307.821 233.395 308.282 232.766C308.603 232.328 308.838 231.848 308.997 231.384C309.162 231.872 309.411 232.369 309.751 232.817C310.24 233.462 310.92 234.009 311.807 234.272C311.344 234.467 310.85 234.741 310.398 235.087C309.827 235.524 309.304 236.092 309.006 236.778Z" stroke="white" stroke-width="0.5"/>
<path d="M299.006 499.778C298.743 499.127 298.289 498.556 297.763 498.105C297.328 497.732 296.832 497.431 296.333 497.228C297.179 496.942 297.821 496.395 298.282 495.766C298.603 495.328 298.838 494.848 298.997 494.384C299.162 494.871 299.411 495.369 299.751 495.817C300.24 496.462 300.92 497.009 301.807 497.272C301.344 497.467 300.85 497.741 300.398 498.087C299.827 498.524 299.304 499.092 299.006 499.778Z" stroke="white" stroke-width="0.5"/>
<path d="M299.006 82.7788C298.743 82.1271 298.289 81.5565 297.763 81.1054C297.328 80.7328 296.832 80.4316 296.333 80.2289C297.179 79.9429 297.821 79.3957 298.282 78.7669C298.603 78.3286 298.838 77.8484 298.997 77.3844C299.162 77.8719 299.411 78.3696 299.751 78.8177C300.24 79.4626 300.92 80.0094 301.807 80.2726C301.344 80.4671 300.85 80.7415 300.398 81.0872C299.827 81.5243 299.304 82.0922 299.006 82.7788Z" stroke="white" stroke-width="0.5"/>
<path d="M133.006 534.778C132.743 534.127 132.289 533.556 131.763 533.105C131.328 532.732 130.832 532.431 130.333 532.228C131.179 531.942 131.821 531.395 132.282 530.766C132.603 530.328 132.838 529.848 132.997 529.384C133.162 529.871 133.411 530.369 133.751 530.817C134.24 531.462 134.92 532.009 135.807 532.272C135.344 532.467 134.85 532.741 134.398 533.087C133.827 533.524 133.304 534.092 133.006 534.778Z" stroke="white" stroke-width="0.5"/>
<path d="M133.006 117.779C132.743 117.127 132.289 116.557 131.763 116.105C131.328 115.733 130.832 115.432 130.333 115.229C131.179 114.943 131.821 114.396 132.282 113.767C132.603 113.329 132.838 112.848 132.997 112.384C133.162 112.872 133.411 113.37 133.751 113.818C134.24 114.463 134.92 115.009 135.807 115.273C135.344 115.467 134.85 115.742 134.398 116.087C133.827 116.524 133.304 117.092 133.006 117.779Z" stroke="white" stroke-width="0.5"/>
<path d="M336.006 2.77877C335.743 2.12712 335.289 1.55652 334.763 1.10542C334.328 0.732841 333.832 0.431623 333.333 0.228882C334.179 -0.057142 334.821 -0.604318 335.282 -1.23314C335.603 -1.67135 335.838 -2.15157 335.997 -2.6156C336.162 -2.12805 336.411 -1.63039 336.751 -1.18227C337.24 -0.537402 337.92 0.00936747 338.807 0.272553C338.344 0.467112 337.85 0.741522 337.398 1.08721C336.827 1.52434 336.304 2.0922 336.006 2.77877Z" stroke="white" stroke-width="0.5"/>
<circle cx="121.401" cy="797" r="101" stroke="white" stroke-width="4"/>
<path d="M217.36 762.008C261.278 730.045 287.438 703.693 281.955 694.324C273.447 679.786 191.973 711.642 99.9762 765.478C7.97976 819.314 -54.1059 871.462 -45.5981 886C-41.7944 892.5 -10.8005 890.038 43.902 864" stroke="white" stroke-width="4"/>
</g>
<defs>
<clipPath id="clip0">
<rect width="414" height="896" fill="white"/>
</clipPath>
</defs>
</svg>
