<svg width="41" height="50" viewBox="0 0 41 50" fill="none" xmlns="http://www.w3.org/2000/svg">
<path d="M5.00619 15.4243C4.69325 14.5306 4.10745 13.7461 3.41632 13.1302C2.82084 12.5996 2.13361 12.182 1.45156 11.9238C2.59474 11.5788 3.45053 10.8394 4.05431 9.98321C4.4933 9.36067 4.80237 8.67253 4.99616 8.02053C5.19697 8.70461 5.52341 9.41483 5.98552 10.0483C6.62595 10.9263 7.53304 11.6637 8.73057 11.974C8.10139 12.2268 7.40837 12.6102 6.78181 13.1089C6.03324 13.7047 5.35812 14.4829 5.00619 15.4243Z" stroke="#626B73" stroke-width="0.5"/>
<path d="M5 29.208C8.6 29.208 10 25.5776 10 23.7625C10 25.7426 11.5 29.208 15 29.208C13.5 29.373 10 31.1882 10 34.1585C10 31.3862 7 29.208 5 29.208Z" fill="#626B73"/>
<path d="M21.0062 48.5927C20.6933 47.699 20.1074 46.9144 19.4163 46.2985C18.8208 45.7679 18.1336 45.3504 17.4516 45.0922C18.5947 44.7471 19.4505 44.0078 20.0543 43.1515C20.4933 42.529 20.8024 41.8409 20.9962 41.1889C21.197 41.8729 21.5234 42.5832 21.9855 43.2167C22.6259 44.0946 23.533 44.8321 24.7306 45.1423C24.1014 45.3952 23.4084 45.7785 22.7818 46.2772C22.0332 46.873 21.3581 47.6513 21.0062 48.5927Z" stroke="#626B73" stroke-width="0.5"/>
<path d="M18 12.447C26.28 12.447 29.5 4.14899 29.5 0C29.5 4.52617 32.95 12.447 41 12.447C37.55 12.8241 29.5 16.9731 29.5 23.7624C29.5 17.4257 22.6 12.447 18 12.447Z" fill="#626B73"/>
</svg>
